<svg width="20" height="22" viewBox="0 0 20 22" fill="none" xmlns="http://www.w3.org/2000/svg">
<path d="M1.74238 19.555C2.94238 21 5.17438 21 9.63938 21H10.3614C14.8264 21 17.0594 21 18.2594 19.555M1.74238 19.555C0.542379 18.109 0.954379 15.915 1.77738 11.525C2.36238 8.405 2.65438 6.844 3.76538 5.922M18.2594 19.555C19.4594 18.109 19.0474 15.915 18.2244 11.525C17.6394 8.405 17.3464 6.844 16.2354 5.922M16.2354 5.922C15.1254 5 13.5364 5 10.3614 5H9.63938C6.46438 5 4.87638 5 3.76538 5.922" stroke="#362C27" stroke-width="1.5"/>
<path d="M7 5V4C7 3.20435 7.31607 2.44129 7.87868 1.87868C8.44129 1.31607 9.20435 1 10 1C10.7956 1 11.5587 1.31607 12.1213 1.87868C12.6839 2.44129 13 3.20435 13 4V5" stroke="#362C27" stroke-width="1.5" stroke-linecap="round"/>
</svg>
